<mxfile host="app.diagrams.net" agent="Mozilla/5.0 (Macintosh; Intel Mac OS X 10_15_7) AppleWebKit/537.36 (KHTML, like Gecko) Chrome/131.0.0.0 Safari/537.36" version="25.0.3">
  <diagram id="4WZmSYpkoyiS_aXek_K5" name="Page-1">
    <mxGraphModel dx="1242" dy="785" grid="1" gridSize="10" guides="1" tooltips="1" connect="1" arrows="1" fold="1" page="1" pageScale="1" pageWidth="827" pageHeight="1169" math="0" shadow="0">
      <root>
        <mxCell id="0" />
        <mxCell id="1" parent="0" />
        <mxCell id="SQV9DvT5rrpoaavwSdlr-3" value="" style="endArrow=none;dashed=1;html=1;dashPattern=1 3;strokeWidth=2;rounded=0;" parent="1" edge="1">
          <mxGeometry width="50" height="50" relative="1" as="geometry">
            <mxPoint x="480" y="430" as="sourcePoint" />
            <mxPoint x="480" y="40" as="targetPoint" />
          </mxGeometry>
        </mxCell>
        <mxCell id="SQV9DvT5rrpoaavwSdlr-4" value="External Resources" style="shape=process;whiteSpace=wrap;html=1;backgroundOutline=1;rounded=1;fontFamily=Architects Daughter;fontSource=https%3A%2F%2Ffonts.googleapis.com%2Fcss%3Ffamily%3DArchitects%2BDaughter;fontSize=18;fillColor=#f8cecc;strokeColor=#b85450;sketch=1;curveFitting=1;jiggle=2;" parent="1" vertex="1">
          <mxGeometry x="520" y="40" width="240" height="40" as="geometry" />
        </mxCell>
        <mxCell id="SQV9DvT5rrpoaavwSdlr-5" style="edgeStyle=orthogonalEdgeStyle;rounded=0;orthogonalLoop=1;jettySize=auto;html=1;exitX=0.5;exitY=1;exitDx=0;exitDy=0;" parent="1" source="SQV9DvT5rrpoaavwSdlr-4" target="SQV9DvT5rrpoaavwSdlr-4" edge="1">
          <mxGeometry relative="1" as="geometry" />
        </mxCell>
        <mxCell id="v3KWYC0Bc1wHF3Wi0S48-2" value="" style="group" parent="1" vertex="1" connectable="0">
          <mxGeometry x="550" y="140" width="200" height="80" as="geometry" />
        </mxCell>
        <mxCell id="LRTzXPa5cr26AKS6x3Df-3" value="Private DNS zone for private link" style="rounded=1;whiteSpace=wrap;html=1;sketch=1;fontFamily=Architects Daughter;fontSource=https%3A%2F%2Ffonts.googleapis.com%2Fcss%3Ffamily%3DArchitects%2BDaughter;fontSize=18;" parent="v3KWYC0Bc1wHF3Wi0S48-2" vertex="1">
          <mxGeometry x="20" y="20" width="180" height="40" as="geometry" />
        </mxCell>
        <mxCell id="v3KWYC0Bc1wHF3Wi0S48-1" value="" style="image;aspect=fixed;html=1;points=[];align=center;fontSize=12;image=img/lib/azure2/networking/DNS_Zones.svg;" parent="v3KWYC0Bc1wHF3Wi0S48-2" vertex="1">
          <mxGeometry width="34" height="34" as="geometry" />
        </mxCell>
        <mxCell id="v3KWYC0Bc1wHF3Wi0S48-3" value="" style="group" parent="v3KWYC0Bc1wHF3Wi0S48-2" vertex="1" connectable="0">
          <mxGeometry x="-10" y="10" width="200" height="70" as="geometry" />
        </mxCell>
        <mxCell id="v3KWYC0Bc1wHF3Wi0S48-4" value="Private DNS zone for private link" style="rounded=1;whiteSpace=wrap;html=1;sketch=1;fontFamily=Architects Daughter;fontSource=https%3A%2F%2Ffonts.googleapis.com%2Fcss%3Ffamily%3DArchitects%2BDaughter;fontSize=18;" parent="v3KWYC0Bc1wHF3Wi0S48-3" vertex="1">
          <mxGeometry x="20" y="20" width="180" height="40" as="geometry" />
        </mxCell>
        <mxCell id="v3KWYC0Bc1wHF3Wi0S48-5" value="" style="image;aspect=fixed;html=1;points=[];align=center;fontSize=12;image=img/lib/azure2/networking/DNS_Zones.svg;" parent="v3KWYC0Bc1wHF3Wi0S48-3" vertex="1">
          <mxGeometry width="34" height="34" as="geometry" />
        </mxCell>
        <mxCell id="v3KWYC0Bc1wHF3Wi0S48-6" value="" style="group" parent="v3KWYC0Bc1wHF3Wi0S48-3" vertex="1" connectable="0">
          <mxGeometry x="-10" y="10" width="200" height="60" as="geometry" />
        </mxCell>
        <mxCell id="v3KWYC0Bc1wHF3Wi0S48-7" value="Private DNS zone for private link" style="rounded=1;whiteSpace=wrap;html=1;sketch=1;fontFamily=Architects Daughter;fontSource=https%3A%2F%2Ffonts.googleapis.com%2Fcss%3Ffamily%3DArchitects%2BDaughter;fontSize=18;" parent="v3KWYC0Bc1wHF3Wi0S48-6" vertex="1">
          <mxGeometry x="20" y="20" width="180" height="40" as="geometry" />
        </mxCell>
        <mxCell id="v3KWYC0Bc1wHF3Wi0S48-8" value="" style="image;aspect=fixed;html=1;points=[];align=center;fontSize=12;image=img/lib/azure2/networking/DNS_Zones.svg;" parent="v3KWYC0Bc1wHF3Wi0S48-6" vertex="1">
          <mxGeometry width="34" height="34" as="geometry" />
        </mxCell>
        <mxCell id="VhMysQZ3uEIIsVtsiQCO-2" value="Private endpoint" style="rounded=1;whiteSpace=wrap;html=1;sketch=1;fontFamily=Architects Daughter;fontSource=https%3A%2F%2Ffonts.googleapis.com%2Fcss%3Ffamily%3DArchitects%2BDaughter;fontSize=18;" vertex="1" parent="1">
          <mxGeometry x="150" y="250" width="180" height="40" as="geometry" />
        </mxCell>
        <mxCell id="VhMysQZ3uEIIsVtsiQCO-4" value="" style="image;aspect=fixed;html=1;points=[];align=center;fontSize=12;image=img/lib/azure2/networking/Private_Endpoint.svg;" vertex="1" parent="1">
          <mxGeometry x="120" y="220" width="43.64" height="40" as="geometry" />
        </mxCell>
        <mxCell id="VhMysQZ3uEIIsVtsiQCO-13" style="edgeStyle=orthogonalEdgeStyle;shape=connector;curved=1;rounded=0;sketch=1;jiggle=2;curveFitting=1;orthogonalLoop=1;jettySize=auto;html=1;strokeColor=default;align=center;verticalAlign=middle;fontFamily=Helvetica;fontSize=11;fontColor=default;labelBackgroundColor=default;endArrow=classic;" edge="1" parent="1" source="VhMysQZ3uEIIsVtsiQCO-5" target="VhMysQZ3uEIIsVtsiQCO-2">
          <mxGeometry relative="1" as="geometry" />
        </mxCell>
        <mxCell id="VhMysQZ3uEIIsVtsiQCO-5" value="Subnet" style="rounded=1;whiteSpace=wrap;html=1;sketch=1;fontFamily=Architects Daughter;fontSource=https%3A%2F%2Ffonts.googleapis.com%2Fcss%3Ffamily%3DArchitects%2BDaughter;fontSize=18;" vertex="1" parent="1">
          <mxGeometry x="550" y="260" width="180" height="40" as="geometry" />
        </mxCell>
        <mxCell id="VhMysQZ3uEIIsVtsiQCO-6" value="" style="image;aspect=fixed;html=1;points=[];align=center;fontSize=12;image=img/lib/azure2/networking/Subnet.svg;" vertex="1" parent="1">
          <mxGeometry x="520" y="250" width="51.3" height="30.72" as="geometry" />
        </mxCell>
        <mxCell id="VhMysQZ3uEIIsVtsiQCO-14" style="edgeStyle=orthogonalEdgeStyle;shape=connector;curved=1;rounded=0;sketch=1;jiggle=2;curveFitting=1;orthogonalLoop=1;jettySize=auto;html=1;entryX=0.5;entryY=1;entryDx=0;entryDy=0;strokeColor=default;align=center;verticalAlign=middle;fontFamily=Helvetica;fontSize=11;fontColor=default;labelBackgroundColor=default;endArrow=classic;" edge="1" parent="1" source="VhMysQZ3uEIIsVtsiQCO-7" target="VhMysQZ3uEIIsVtsiQCO-2">
          <mxGeometry relative="1" as="geometry" />
        </mxCell>
        <mxCell id="VhMysQZ3uEIIsVtsiQCO-7" value="Target resource" style="rounded=1;whiteSpace=wrap;html=1;sketch=1;fontFamily=Architects Daughter;fontSource=https%3A%2F%2Ffonts.googleapis.com%2Fcss%3Ffamily%3DArchitects%2BDaughter;fontSize=18;" vertex="1" parent="1">
          <mxGeometry x="550" y="340" width="180" height="40" as="geometry" />
        </mxCell>
        <mxCell id="VhMysQZ3uEIIsVtsiQCO-8" value="" style="image;aspect=fixed;html=1;points=[];align=center;fontSize=12;image=img/lib/azure2/storage/Storage_Accounts.svg;" vertex="1" parent="1">
          <mxGeometry x="531.3" y="330" width="27.5" height="22" as="geometry" />
        </mxCell>
        <mxCell id="VhMysQZ3uEIIsVtsiQCO-9" value="" style="image;aspect=fixed;html=1;points=[];align=center;fontSize=12;image=img/lib/azure2/app_services/App_Services.svg;" vertex="1" parent="1">
          <mxGeometry x="582.8" y="327.28" width="24.72" height="24.72" as="geometry" />
        </mxCell>
        <mxCell id="VhMysQZ3uEIIsVtsiQCO-10" value="" style="image;aspect=fixed;html=1;points=[];align=center;fontSize=12;image=img/lib/azure2/databases/SQL_Server.svg;" vertex="1" parent="1">
          <mxGeometry x="607.52" y="325.64" width="28" height="28" as="geometry" />
        </mxCell>
        <mxCell id="VhMysQZ3uEIIsVtsiQCO-11" value="" style="image;aspect=fixed;html=1;points=[];align=center;fontSize=12;image=img/lib/azure2/management_governance/Monitor.svg;" vertex="1" parent="1">
          <mxGeometry x="558.8" y="328" width="24" height="24" as="geometry" />
        </mxCell>
        <mxCell id="VhMysQZ3uEIIsVtsiQCO-12" style="edgeStyle=orthogonalEdgeStyle;rounded=0;orthogonalLoop=1;jettySize=auto;html=1;curved=1;sketch=1;curveFitting=1;jiggle=2;" edge="1" parent="1" source="v3KWYC0Bc1wHF3Wi0S48-7" target="VhMysQZ3uEIIsVtsiQCO-2">
          <mxGeometry relative="1" as="geometry" />
        </mxCell>
      </root>
    </mxGraphModel>
  </diagram>
</mxfile>
